<?xml version="1.0" encoding="UTF-8"?>
<svg width="128px" height="128px" viewBox="0 0 128 128" version="1.1" xmlns="http://www.w3.org/2000/svg" xmlns:xlink="http://www.w3.org/1999/xlink" style="background: #026FD8;">
    <!-- Generator: Sketch 49.3 (51167) - http://www.bohemiancoding.com/sketch -->
    <title>StartBooking-Plugin-Icon-v2-128</title>
    <desc>Created with Sketch.</desc>
    <defs></defs>
    <g id="StartBooking-Plugin-Icon-v2-128" stroke="none" stroke-width="1" fill="none" fill-rule="evenodd">
        <g id="Logo" transform="translate(29.000000, 29.000000)" fill="#FFFFFF" fill-rule="nonzero">
            <g id="start-booking-logo_2-copy">
                <g id="Group">
                    <path d="M34.7892854,37.6654126 L18.5673152,37.568275 C8.3064305,37.568275 1.77635684e-15,29.1641218 1.77635684e-15,18.9032371 C1.77635684e-15,13.9193788 1.95445424,9.2286886 5.47247186,5.71067097 C8.99048949,2.19265335 13.6811797,0.23819911 18.665038,0.23819911 L56.3860047,0.335921822 C63.7152081,0.335921822 69.6762935,6.29700724 69.6762935,13.6262106 C69.6762935,20.955414 63.7152081,26.9164994 56.3860047,26.9164994 L18.665038,26.9164994 C14.2675159,26.9164994 10.6517756,23.3984818 10.6517756,19.0009598 C10.6517756,16.8510601 11.4335573,14.7988832 12.9971207,13.3330425 C14.4629613,11.7694791 16.5151383,10.9876974 18.665038,10.9876974 L59.1222406,10.9876974 L59.1222406,16.2647238 L18.665038,16.2647238 C17.980979,16.2647238 17.29692,16.557892 16.8083064,17.0465055 C16.3196929,17.5351191 16.0265247,18.2191781 16.0265247,19.0009598 C16.0265247,20.4668005 17.1991973,21.639473 18.665038,21.639473 L56.3860047,21.639473 C60.7835267,21.639473 64.3992671,18.0237327 64.3992671,13.6262106 C64.3992671,9.2286886 60.7835267,5.61294826 56.3860047,5.61294826 L18.665038,5.51522555 C15.1470203,5.51522555 11.7267254,6.88334351 9.28365762,9.42413402 C6.74286711,11.9649245 5.37474915,15.2874967 5.37474915,18.8055144 C5.37474915,26.1347177 11.3358346,32.0958032 18.665038,32.0958032 L34.9847308,32.1935259 L34.9812202,32.3901206 L51.1089783,32.486694 C61.369863,32.486694 69.6762935,40.8908472 69.6762935,51.151732 C69.6762935,56.1355903 67.7218393,60.8262804 64.2038217,64.3442981 C60.685804,67.764593 55.9951139,69.7190472 51.1089783,69.7190472 C51.0112556,69.7190472 51.0112556,69.7190472 51.1089783,69.7190472 L13.3880115,69.6213245 C6.05880813,69.6213245 0.0977227118,63.6602391 0.0977227118,56.3310357 C0.0977227118,49.0018323 6.05880813,43.0407469 13.3880115,43.0407469 L51.1089783,43.0407469 C55.5065003,43.0407469 59.1222406,46.5587645 59.1222406,50.9562865 C59.1222406,53.1061862 58.3404589,55.1583631 56.7768956,56.6242038 C55.3110549,58.1877672 53.2588779,58.9695489 51.1089783,58.9695489 L10.6517756,58.9695489 L10.6517756,53.6925225 L51.1089783,53.6925225 C51.7930373,53.6925225 52.4770962,53.3993543 52.9657098,52.9107408 C53.4543234,52.4221272 53.7474915,51.7380682 53.7474915,50.9562865 C53.7474915,49.4904459 52.574819,48.3177733 51.1089783,48.3177733 L13.3880115,48.3177733 C8.99048949,48.3177733 5.37474915,51.9335137 5.37474915,56.3310357 C5.37474915,60.7285577 8.99048949,64.3442981 13.3880115,64.3442981 L51.1089783,64.4420208 C54.6269959,64.4420208 58.0472908,63.0739028 60.4903586,60.5331123 C63.0311491,57.9923218 64.3992671,54.6697496 64.3992671,51.151732 C64.3992671,43.8225286 58.4381817,37.8614432 51.1089783,37.8614432 L34.7892854,37.6659977 L34.7892854,37.6654126 Z" id="Combined-Shape"></path>
                </g>
            </g>
        </g>
    </g>
</svg>